<svg xmlns="http://www.w3.org/2000/svg">
  <symbol part="import primary" id="import" viewBox="0 0 39.271 38.027" fill="#fffbef">
    <path transform="translate(-1.83 -2.346)" d="M21.72 40.37A19.77 19.77 0 0041.1 24.93a.45.45 0 00-.16-.45.45.45 0 00-.47-.06 18.77 18.77 0 01-7.81 1.7A19 19 0 0113.67 7.14a19.74 19.74 0 01.49-4.24.45.45 0 00-.16-.45.45.45 0 00-.47-.06 19.87 19.87 0 008.2 37.98zM13.1 3.6a19.5 19.5 0 00-.33 3.52 19.92 19.92 0 0019.89 19.9 19.74 19.74 0 007.33-1.41 18.97 18.97 0 11-26.9-22z"/>
  </symbol>
  <use href="#import"/>
</svg>