<svg xmlns="http://www.w3.org/2000/svg">
  <symbol part="import" id="import" viewBox="0 0 46.771 46.771">
    <path part="secondary" d="M23.39 0A23.39 23.39 0 110 23.39 23.39 23.39 0 0123.39 0z" fill="#fd9c86"/>
    <g part="primary" transform="translate(6.81 6.688)" fill="#9A2A40">
      <path d="M1067.8 138.53a19.83 19.83 0 00-6.75-5.5 19.73 19.73 0 00-17.54 0 19.84 19.84 0 00-6.75 5.5 4.27 4.27 0 000 5.27 19.82 19.82 0 006.75 5.5 19.72 19.72 0 0017.54 0 19.82 19.82 0 006.75-5.5 4.27 4.27 0 000-5.27zm-1.08 4.42a18.49 18.49 0 01-6.28 5.12 18.35 18.35 0 01-16.32 0 18.5 18.5 0 01-6.27-5.12 2.9 2.9 0 010-3.56 18.5 18.5 0 016.28-5.12 18.36 18.36 0 0116.3 0 18.5 18.5 0 016.29 5.12 2.9 2.9 0 010 3.56z" transform="translate(-1035.849 -125.366)"/>
      <path d="M1057.03 135.78a7.18 7.18 0 102.43 5.39 7.18 7.18 0 00-2.43-5.38zm-4.75 11.19a5.8 5.8 0 115.8-5.8 5.8 5.8 0 01-5.8 5.8z" transform="translate(-1035.849 -125.366)"/>
      <path d="M1052.28 129.28a.7.7 0 00.69-.69v-2.53a.69.69 0 10-1.38 0v2.54a.7.7 0 00.69.69z" transform="translate(-1035.849 -125.366)"/>
      <path d="M1062.88 132.13a.7.7 0 00.5-.2l1.79-1.79a.69.69 0 00-.97-.97l-1.8 1.8a.69.69 0 000 .96.67.67 0 00.48.2z" transform="translate(-1035.849 -125.366)"/>
      <path d="M1041.19 131.94a.68.68 0 00.49.2.7.7 0 00.49-.2.69.69 0 000-.98l-1.8-1.8a.69.69 0 00-.97.98z" transform="translate(-1035.849 -125.366)"/>
      <path d="M1052.28 153.05a.7.7 0 00-.7.69v2.54a.69.69 0 001.39 0v-2.54a.7.7 0 00-.7-.7z" transform="translate(-1035.849 -125.366)"/>
      <path d="M1041.19 150.4l-1.8 1.8a.69.69 0 000 .97.68.68 0 00.5.2.7.7 0 00.48-.2l1.8-1.8a.69.69 0 000-.97.7.7 0 00-.98 0z" transform="translate(-1035.849 -125.366)"/>
      <path d="M1063.37 150.4a.69.69 0 10-.98.97l1.8 1.8a.68.68 0 00.49.2.7.7 0 00.49-.2.69.69 0 000-.98z" transform="translate(-1035.849 -125.366)"/>
      <path d="M1054.9 140.48a.7.7 0 00-.69.69 1.93 1.93 0 11-1.93-1.93.69.69 0 100-1.38 3.31 3.31 0 103.31 3.3.7.7 0 00-.69-.68z" transform="translate(-1035.849 -125.366)"/>
    </g>
  </symbol>
  <use href="#import"/>
</svg>