<svg xmlns="http://www.w3.org/2000/svg">
  <symbol part="import" id="import" viewBox="0 0 46.771 46.666">
    <ellipse part="secondary" cx="23.386" cy="23.333" rx="23.386" ry="23.333" fill="#fff"/>
    <g part="primary" transform="translate(8.21 9.12)" fill="#cb8e1d">
      <path d="M27.24 5.62a1.83 1.83 0 001-1.57 1.85 1.85 0 00-.89-1.66A13.3 13.3 0 0021.37.26a12.18 12.18 0 00-6.18 1.18C11.27-.76 7.13-.44 2.9 2.4a1.88 1.88 0 00.15 3.21A30.6 30.6 0 006.31 7.1a5.32 5.32 0 00-.12 1.1v8.16a8.96 8.96 0 0017.92 0V8.2a5.26 5.26 0 00-.11-1.1 30.32 30.32 0 003.24-1.47zM3.68 4.4a.5.5 0 01-.26-.4.49.49 0 01.23-.45C7.59.9 11.23.67 14.8 2.8a.69.69 0 00.65.03 10.71 10.71 0 0111.16.71.47.47 0 01.23.45.47.47 0 01-.26.4 27.83 27.83 0 01-3.05 1.4 5.28 5.28 0 00-4.7-2.88 4.38 4.38 0 01-7.38 0A5.26 5.26 0 006.77 5.8a32.5 32.5 0 01-3.09-1.41zm19.07 11.96a7.59 7.59 0 11-15.18 0V8.19a3.9 3.9 0 013.9-3.9 3.01 3.01 0 013 3.01v4.48a.69.69 0 001.38 0V7.3a3.01 3.01 0 013-3 3.9 3.9 0 013.9 3.89z"/>
      <path d="M15.16 13.42a.69.69 0 00-.69.7v1.4a.69.69 0 101.38 0v-1.4a.69.69 0 00-.69-.7z"/>
      <path d="M15.16 26.73a.69.69 0 00-.69.69v2.34a.69.69 0 001.38 0v-2.34a.69.69 0 00-.69-.69z"/>
      <path d="M3.71 17.45a.69.69 0 00-.68-.69H.69a.69.69 0 100 1.37h2.34a.69.69 0 00.68-.68z"/>
      <path d="M29.63 16.76H27.3a.69.69 0 100 1.37h2.34a.69.69 0 100-1.37z"/>
      <path d="M4.9 24.3l-1.66 1.66a.68.68 0 000 .96.67.67 0 00.49.2.7.7 0 00.49-.2l1.65-1.65a.68.68 0 000-.97.7.7 0 00-.97 0z"/>
      <path d="M25.43 24.3a.68.68 0 10-.97.97l1.65 1.65a.67.67 0 00.49.2.7.7 0 00.49-.2.69.69 0 000-.96z"/>
    </g>
  </symbol>
  <use href="#import"/>
</svg>