<svg viewBox="0 0 46.771 46.771" part="import" id="import" xmlns="http://www.w3.org/2000/svg">
  <path part="secondary" d="M23.38 0A23.39 23.39 0 110 23.39 23.39 23.39 0 0123.38 0z" fill="#c5f8f1"/>
  <g part="primary" transform="translate(10.62 3.05)" fill="#738380">
    <path d="M21.63 20.88l-8.34-3.27v-8a3.49 3.49 0 10-6.98 0v8.26L3.3 21.23A4.14 4.14 0 002.23 24v6.24a6.25 6.25 0 006.24 6.25h9.55a6.25 6.25 0 006.24-6.25v-5.51a4.14 4.14 0 00-2.63-3.85zm1.05 9.38a4.67 4.67 0 01-4.67 4.67H8.46a4.67 4.67 0 01-4.67-4.67V24a2.55 2.55 0 01.66-1.71l1.86-2.07v5.87a.79.79 0 001.58 0V9.6a1.92 1.92 0 013.83 0v8.54a.79.79 0 00.5.73l8.83 3.47a2.55 2.55 0 011.63 2.4v5.51z"/>
    <path d="M9.8 3.78a.79.79 0 00.78-.79V.79a.79.79 0 10-1.57 0v2.2a.79.79 0 00.79.79z"/>
    <path d="M15.96 11.32a.79.79 0 00.79.79h2.2a.79.79 0 100-1.58h-2.2a.79.79 0 00-.79.8z"/>
    <path d="M3.78 11.32a.79.79 0 00-.78-.79H.79a.79.79 0 100 1.58h2.2a.78.78 0 00.8-.79z"/>
    <path d="M15.4 6.96a.8.8 0 00.55-.22l1.56-1.56a.78.78 0 10-1.11-1.1l-1.56 1.55a.78.78 0 00.55 1.33z"/>
    <path d="M3.65 6.74a.77.77 0 00.55.23.8.8 0 00.56-.23.78.78 0 000-1.11L3.21 4.07A.78.78 0 002.1 5.18z"/>
  </g>
</svg>