<svg xmlns="http://www.w3.org/2000/svg" viewBox="0 0 1200 630">
  <defs>
    <style>
      .background {
        fill: white;
      }

      .a {
        stroke-miterlimit: 10;
        fill: url(#a);
        stroke: url(#b);
      }

      .a,
      .c {
        opacity: 0.28;
      }

      .b {
        fill: url(#c);
      }

      .c {
        fill: url(#d);
      }

      .d {
        fill: #c95649;
      }

      .e {
        fill: #ad3527;
      }

      .f {
        fill: #c43727;
      }

      .g {
        fill: #db7d2a;
      }

      .h {
        fill: #c95e00;
      }

      .i {
        fill: #ad5a11;
      }

      .ah,
      .j {
        fill: none;
      }

      .k {
        fill: #738380;
      }

      .l {
        fill: #141f1d;
      }

      .m {
        fill: #aacbb3;
      }

      .n {
        fill: #1b463c;
      }

      .o {
        fill: #f35645;
      }

      .p {
        fill: #813b33;
      }

      .q {
        fill: #fd9c86;
      }

      .r {
        fill: #9a2a40;
      }

      .s {
        fill: #fff;
      }

      .t {
        fill: #cb8e1d;
      }

      .u {
        fill: #c5f8f1;
      }

      .v {
        fill: #32a2a0;
      }

      .w {
        fill: #fc9c86;
      }

      .x {
        fill: #fdf1d8;
      }

      .y {
        fill: #e2980e;
      }

      .z {
        fill: #efe3ca;
      }

      .aa {
        fill: #e5dbdb;
      }

      .ab {
        fill: #2a8295;
      }

      .ac {
        fill: #c0deeb;
      }

      .ad {
        fill: #182933;
      }

      .ae {
        fill: #bbc0db;
      }

      .af {
        fill: #af453a;
      }

      .ag {
        fill: #fbc8b5;
        opacity: 0.68;
        isolation: isolate;
      }

      .ah {
        stroke: #af453a;
        stroke-linecap: round;
        stroke-width: 3px;
      }
    </style>
    <linearGradient id="a" y1="314.75" x2="1200" y2="314.75" gradientUnits="userSpaceOnUse">
      <stop offset="0" stop-color="#fff" />
      <stop offset="0.51" stop-color="#fffbfb" />
      <stop offset="0.54" stop-color="#fee4e8" />
      <stop offset="0.58" stop-color="#fdc7d0" />
      <stop offset="0.63" stop-color="#fcafbc" />
      <stop offset="0.69" stop-color="#fb9cac" />
      <stop offset="0.75" stop-color="#fa8fa1" />
      <stop offset="0.83" stop-color="#fa879b" />
      <stop offset="1" stop-color="#fa8599" />
    </linearGradient>
    <linearGradient id="b" x1="-0.5" y1="314.75" x2="1200.5" y2="314.75" gradientUnits="userSpaceOnUse">
      <stop offset="0" stop-color="#fff" />
      <stop offset="0.43" stop-color="#fffdfd" />
      <stop offset="0.59" stop-color="#fff6f8" />
      <stop offset="0.7" stop-color="#feebee" />
      <stop offset="0.79" stop-color="#fddae0" />
      <stop offset="0.87" stop-color="#fdc4cd" />
      <stop offset="0.93" stop-color="#fba9b7" />
      <stop offset="0.99" stop-color="#fa899d" />
      <stop offset="1" stop-color="#fa8599" />
    </linearGradient>
    <linearGradient id="c" y1="568.31" x2="1200" y2="568.31" gradientUnits="userSpaceOnUse">
      <stop offset="0" stop-color="#af6720" />
      <stop offset="0.14" stop-color="#ac6621" />
      <stop offset="0.23" stop-color="#a36425" />
      <stop offset="0.32" stop-color="#93602c" />
      <stop offset="0.4" stop-color="#7d5b35" />
      <stop offset="0.47" stop-color="#605442" />
      <stop offset="0.54" stop-color="#3e4b50" />
      <stop offset="0.56" stop-color="#354954" />
      <stop offset="0.69" stop-color="#2e4757" />
      <stop offset="1" stop-color="#2c4758" />
    </linearGradient>
    <linearGradient id="d" x1="13.1" y1="349.88" x2="1187.03" y2="349.88" gradientUnits="userSpaceOnUse">
      <stop offset="0" stop-color="#9fc9d8" />
      <stop offset="0.41" stop-color="#a1cad7" />
      <stop offset="0.41" stop-color="#a1cad7" />
      <stop offset="0.43" stop-color="#a7cdd4" />
      <stop offset="0.53" stop-color="#c7dcc8" />
      <stop offset="0.64" stop-color="#e0e7be" />
      <stop offset="0.75" stop-color="#f1f0b7" />
      <stop offset="0.86" stop-color="#fcf4b2" />
      <stop offset="1" stop-color="#fff6b1" />
    </linearGradient>
  </defs>
  <rect class="background" width="1200" height="630" />
  <rect class="a" width="1200" height="630" />
  <path class="b"
    d="M54.4,490.71H1145.6c30,0,54.4,4.12,54.4,9.2v136.8c0,5.08-24.36,9.19-54.4,9.19H54.4c-30,0-54.4-4.11-54.4-9.19V499.91C0,494.83,24.36,490.71,54.4,490.71Z" />
  <path class="c"
    d="M13.1,101S74,59.46,119.67,64.27s13.29,3.41,68-.39,79.46,26.56,121.08,20.41,55.18,1,72.45,0S415.55,72,440.92,71.85,510.7,96.29,545.24,93.69s80.18,8.49,90,23.68l9.87,15.2h0S694.5,58.3,716.7,92.84,754.94,142.05,771,125s61.84,4.76,88.28-9.62,12.87-48.26,42.47-31.09,30.84-6.07,56.74-15.17,32.08-26.51,49.35-4.85,30.83,36.25,41.94,36.72,53-9.89,65.37-22.84,13.57-30.35,28.38-13.88-2.47,21.65,14.8,16.47A76.26,76.26,0,0,0,1187,64.27V645.9H13.1Z" />
  <path class="d"
    d="M44.37,460.13c19-12.71,14.35-23.6,23.2-12.54s4.13,9.76,13.11,16.68,8.13.14,10.59,10.78,7.93,14.62,0,17.49-9.71-5.81-10.59,6.38-.77,7.63-5,15.18-18.39,4.61-18.39,4.61L44.37,508s-6,4.29-5.79-9.07-3.51-34.09-2.27-34.65,8.06-4.14,8.06-4.14" />
  <path class="e"
    d="M77.84,561.25c.94-.32-1-25.16,23.19-15.06s21.82,0,21.82,0,14.75,3.9,15.49,15.06,11.08,21.33,0,26.17-28.61,16-40.78,14.9-13.53,0-19.72-10S76.91,561.56,77.84,561.25Z" />
  <path class="d"
    d="M302.58,464.33c-14.53-16.59-22.92-23.48-25.1-11.65s6.59,8.18-7.08,20.83-17.87,14.11-15.13,17,9.13,17.92,15.13,19.16,25.59-2.27,32.18-7.11,12.94-7.23,9.62-18.19-2.27-17.33-2.27-17.33Z" />
  <path class="f"
    d="M323.3,491.57c17.83-21.8,29.26-28.16,37.42-21.81s7.2,15.66,10.24,21.81,14.11,10.17,0,13.26-3.14,13.41-3.14,13.41-5.7,8.62-18.91,5.58-24-2.76-25.61-12.47-6.9-17.22-3.66-19.78S323.3,491.57,323.3,491.57Z" />
  <path class="e"
    d="M486.35,565c-17.79,4.26-21.32,4.89-22.79,18s-25,9.79-25.28,14.43,28.11,17,42.27,13.87,16.21,4.29,23.05-13.87,17.15-11.2,18-24.45,10.2-22.7-11-17.64S486.35,565,486.35,565Z" />
  <path class="g"
    d="M1112.35,525.09c-9-21.24-17.17-9.69-17.37-23.34s16.7-5.17,14.46-27.21-13.25-55.5-3.53-36,17.79-25,17.86-9.69,3.15,30.34,11.83,28.44-5.81,6.63-7.88,20.63,17.52,15.2,14.17,32.65c-12.41-4.49-.16,4.93,0,5.81,4,19.94-7.32-1.25-4.54,13.71-5.89,6.22-6.37,1.07-13.58,5.7S1112.35,525.09,1112.35,525.09Z" />
  <path class="h"
    d="M1025.81,551.12s-4.95-3.66,2.17-7.15c-4.47-1.55-8.7-10.92-2.17-13.92-2.18-2.38-.31-13,7-11.37-.46-4,3.16-11.45,8.34-8.58-.21-4,8.83-7.78,12.08-2.16,2.19-5.46,10.29,1.16,8.29,4.52,1.06-.58,9.73-1.5,8.52,4.77,1.91-.17,8.69-.7,7.4,5.42,2,0,6.13,1.84,6.84,4.26a2.35,2.35,0,0,1-.82,2.3c5.13,4.37,1.72,9,.76,11-2.48,5.1,6.42,10.83-4.24,13.52-.56,4.42-3.91,4-9.44,4.61a161.27,161.27,0,0,1-34.31,0C1027.46,557.52,1025.81,551.12,1025.81,551.12Z" />
  <path class="i"
    d="M640.94,489.92s15.82-10.5,9.95-22.71-11.09-18.57-11.68-23,17.73,5,18.37,5.2,23.77-5,18.53,1.74-11.55,2.34-10.94,16.07-.79,11.13,1.06,19.22,4.17,16.12,4.17,16.12-6.25,3.5-9.3,0-5-14.14-9.19-2.56-11.49,5.81-12.7,2.56a12.33,12.33,0,0,1,0-8.71C640.12,491.65,640.94,489.92,640.94,489.92Z" />
  <path class="i"
    d="M576.55,481.29s12.28-19.84,9-37.85-25-28.62-26.34-49.84-7-45.77,0-43.19,6.36-3.68,11.32,18.16,11.22,21.71,15,28.9,4.84,16.33,6.87-3.87,3.23-35.72,6.59-29.49,15.35,13.37,9.76,29.49-13.41,15.49-9.76,23.16,16.4-1.35,18.5,11.12-4.4,4.47-8.74,15.56S597.64,466,606,481.29s7.2,19.18,7.2,19.18-2.06,16.21-14.14,11.34-10.45-1.84-13.45,0-16.65,3.47-15-3.32,7.25-7,6-13.57A43,43,0,0,1,576.55,481.29Z" />
  <rect class="j" x="811.31" y="-0.49" width="257.84" height="143.24" />
  <g>
    <circle class="k" cx="1015.28" cy="256.02" r="23.39" />
    <g class="l">
      <path
        d="M1029.66,241a.37.37,0,0,0-.37-.38h-29a.38.38,0,0,0-.37.38v29a.38.38,0,0,0,.37.38h29a.37.37,0,0,0,.37-.38h0Zm-21.77,26.56a2.57,2.57,0,0,1,2.58-2.58h1.36a2.59,2.59,0,0,1,2.58,2.58v2.1h-6.52Zm7.26,0a2.57,2.57,0,0,1,2.57-2.58h1.37a2.59,2.59,0,0,1,2.58,2.58v2.1h-6.52Zm3.94-3.32h-1.37a3.31,3.31,0,0,1-5.89,0h-1.36a3.32,3.32,0,0,1-5.9,0h-.1a17.48,17.48,0,0,0-3.45-5.09c6.66-2.25,6.92-11.4,6.91-12.92h.17a2.2,2.2,0,0,1,3.68,0h1.16a2.2,2.2,0,0,0,1.84-1,2.17,2.17,0,0,0,1.83,1h1.16a2.2,2.2,0,0,1,3.68,0h.17c0,1.52.25,10.67,6.91,12.92a17.48,17.48,0,0,0-3.45,5.09h-.1a3.31,3.31,0,0,1-5.89,0Zm-14-19a2.22,2.22,0,0,0,1.84,1h.25c0,1.4-.21,10.24-6.55,12.26V245.68a2.18,2.18,0,0,0,1.46.56h1.16a2.2,2.2,0,0,0,1.84-1Zm19.36,0a2.19,2.19,0,0,0,1.83,1h1.16a2.23,2.23,0,0,0,1.47-.56v12.82c-6.34-2-6.56-10.86-6.56-12.26h.25a2.19,2.19,0,0,0,1.84-1Zm4.46,14.58v5.64a3.34,3.34,0,0,0-2.58-1.22h-.44A17.32,17.32,0,0,1,1028.92,259.83Zm-28.29-18.45h28.29V244a1.47,1.47,0,0,1-1.47,1.47h-1.16a1.47,1.47,0,0,1-1.47-1.47.37.37,0,0,0-.37-.37.38.38,0,0,0-.37.37,1.47,1.47,0,0,1-1.47,1.47h-1.16A1.46,1.46,0,0,1,1020,244a.38.38,0,0,0-.37-.38.37.37,0,0,0-.37.37h0a1.47,1.47,0,0,1-1.47,1.46h-1.16a1.46,1.46,0,0,1-1.47-1.46.37.37,0,0,0-.37-.38.38.38,0,0,0-.37.37h0a1.46,1.46,0,0,1-1.47,1.46h-1.16a1.47,1.47,0,0,1-1.47-1.46.37.37,0,0,0-.37-.38.38.38,0,0,0-.37.37h0a1.46,1.46,0,0,1-1.47,1.46h-1.16a1.46,1.46,0,0,1-1.47-1.46.37.37,0,0,0-.37-.38.38.38,0,0,0-.37.38,1.46,1.46,0,0,1-1.47,1.46h-1.16a1.46,1.46,0,0,1-1.46-1.46Zm0,18.45a17.32,17.32,0,0,1,3,4.42h-.44a3.34,3.34,0,0,0-2.58,1.22Zm0,7.73a2.58,2.58,0,0,1,2.58-2.57h1.36a2.58,2.58,0,0,1,2.58,2.57v2.1h-6.52Zm28.29,2.1h-6.51v-2.1A2.57,2.57,0,0,1,1025,265h1.37a2.57,2.57,0,0,1,2.57,2.57Z" />
      <path
        d="M1002.62,253.73a.37.37,0,0,0,.51-.12,11.41,11.41,0,0,0,1.45-4.8.36.36,0,0,0-.35-.39.38.38,0,0,0-.39.35h0a10.77,10.77,0,0,1-1.35,4.45.37.37,0,0,0,.12.51Z" />
      <path
        d="M1026.74,253.79a.38.38,0,0,0,.38-.38.35.35,0,0,0-.06-.19,10.83,10.83,0,0,1-1.35-4.44.37.37,0,1,0-.74,0,11.29,11.29,0,0,0,1.46,4.8A.37.37,0,0,0,1026.74,253.79Z" />
    </g>
  </g>
  <g>
    <path class="m" d="M904.35,197.6a23.39,23.39,0,0,1,6.06,46,23,23,0,0,1-6.06.79,23.39,23.39,0,0,1,0-46.77Z" />
    <g class="n">
      <path
        d="M918.74,206a.38.38,0,0,0-.37-.37h-29a.37.37,0,0,0-.37.37v29a.37.37,0,0,0,.37.37h29a.38.38,0,0,0,.37-.37h0ZM897,232.53a2.58,2.58,0,0,1,2.57-2.58h1.37a2.58,2.58,0,0,1,2.57,2.58v2.1H897Zm7.25,0A2.6,2.6,0,0,1,906.8,230h1.37a2.58,2.58,0,0,1,2.57,2.58v2.1h-6.51Zm3.95-3.32H906.8a3.31,3.31,0,0,1-5.89,0h-1.37a3.31,3.31,0,0,1-5.89,0h-.1a17.61,17.61,0,0,0-3.45-5.09c6.66-2.25,6.91-11.4,6.91-12.92h.17a2.19,2.19,0,0,0,1.83-1,2.22,2.22,0,0,0,1.84,1H902a2.22,2.22,0,0,1,3.68,0h1.16a2.22,2.22,0,0,1,3.68,0h.17c0,1.53.25,10.67,6.91,12.92a17.61,17.61,0,0,0-3.45,5.09h-.1a3.31,3.31,0,0,1-5.89,0Zm-14-19a2.2,2.2,0,0,0,1.84,1h.25c0,1.4-.21,10.24-6.56,12.25V210.64a2.23,2.23,0,0,0,1.47.56h1.16a2.2,2.2,0,0,0,1.84-1Zm19.35,0a2.2,2.2,0,0,0,1.84,1h1.16a2.18,2.18,0,0,0,1.46-.56v12.82c-6.33-2-6.56-10.86-6.55-12.26h.25a2.2,2.2,0,0,0,1.84-1ZM918,224.8v5.64a3.32,3.32,0,0,0-2.58-1.23H915A17.1,17.1,0,0,1,918,224.8Zm-28.29-18.46H918V209a1.48,1.48,0,0,1-1.47,1.47h-1.16A1.48,1.48,0,0,1,913.9,209a.37.37,0,0,0-.37-.37.36.36,0,0,0-.37.37,1.48,1.48,0,0,1-1.47,1.47h-1.16a1.47,1.47,0,0,1-1.46-1.47.38.38,0,0,0-.75,0h0a1.46,1.46,0,0,1-1.46,1.47H905.7a1.47,1.47,0,0,1-1.47-1.47.37.37,0,0,0-.37-.37.36.36,0,0,0-.37.37h0a1.48,1.48,0,0,1-1.47,1.47h-1.16a1.47,1.47,0,0,1-1.47-1.47.37.37,0,0,0-.74,0h0a1.47,1.47,0,0,1-1.47,1.47H896a1.47,1.47,0,0,1-1.47-1.47.37.37,0,0,0-.37-.37.36.36,0,0,0-.37.37,1.47,1.47,0,0,1-1.47,1.47h-1.16a1.47,1.47,0,0,1-1.47-1.47Zm0,18.46a17.1,17.1,0,0,1,3,4.41h-.44a3.32,3.32,0,0,0-2.58,1.23Zm0,7.73a2.59,2.59,0,0,1,2.58-2.58h1.36a2.6,2.6,0,0,1,2.58,2.58v2.1h-6.52Zm28.29,2.1h-6.52v-2.1a2.6,2.6,0,0,1,2.58-2.58h1.36a2.59,2.59,0,0,1,2.58,2.58Z" />
      <path
        d="M891.69,218.7a.37.37,0,0,0,.51-.13,11.29,11.29,0,0,0,1.46-4.8.38.38,0,0,0-.35-.39.37.37,0,0,0-.39.36h0a10.83,10.83,0,0,1-1.35,4.44.36.36,0,0,0,.12.51Z" />
      <path
        d="M915.82,218.75a.37.37,0,0,0,.37-.37.3.3,0,0,0-.05-.19,10.77,10.77,0,0,1-1.35-4.45.38.38,0,0,0-.39-.35.36.36,0,0,0-.35.39,11.41,11.41,0,0,0,1.45,4.8A.37.37,0,0,0,915.82,218.75Z" />
    </g>
  </g>
  <g>
    <circle class="o" cx="927.74" cy="393.1" r="23.39" />
    <g class="p">
      <path
        d="M920.1,407.15a.51.51,0,0,0,.51.52h14.45a.51.51,0,0,0,.51-.52V400a5.74,5.74,0,0,0-4.77-5.66,5.16,5.16,0,1,0-7.19-1.26,5,5,0,0,0,1.26,1.26A5.74,5.74,0,0,0,920.1,400Zm3.61-17a4.13,4.13,0,1,1,4.13,4.12,4.13,4.13,0,0,1-4.13-4.12ZM921.13,400a4.71,4.71,0,0,1,4.71-4.71h4a4.71,4.71,0,0,1,4.71,4.71v6.64H921.13Z" />
      <rect x="927.36" y="378.71" width="1" height="4" />
      <rect x="932.48" y="381.66" width="2.06" height="1.03" transform="translate(3.18 772.03) rotate(-45)" />
      <rect x="938.36" y="407.71" width="2" height="1" />
      <rect x="938.36" y="401.71" width="2" height="1" />
      <rect x="938.36" y="395.71" width="2" height="1" />
      <rect x="938.15" y="391.16" width="2.06" height="1.03"
        transform="matrix(0.95, -0.32, 0.32, 0.95, -75.67, 317.26)" />
      <rect x="936.55" y="385.81" width="2.06" height="1.03"
        transform="matrix(0.95, -0.32, 0.32, 0.95, -74.06, 316.47)" />
      <rect x="921.64" y="381.14" width="1.03" height="2.06" transform="translate(-0.18 763.92) rotate(-44.99)" />
      <rect x="914.36" y="407.71" width="4" height="1" />
      <rect x="914.36" y="401.71" width="4" height="1" />
      <rect x="914.36" y="395.71" width="4" height="1" />
      <rect x="915.97" y="390.64" width="1.03" height="2.06" transform="translate(255.14 1137.31) rotate(-71.57)" />
      <rect x="917.57" y="385.29" width="1.03" height="2.06" transform="translate(261.5 1135.34) rotate(-71.58)" />
      <path
        d="M941.25,381.35a1.56,1.56,0,0,1,1.55-1.54.52.52,0,0,0,0-1,1.55,1.55,0,0,1-1.55-1.55h0a.52.52,0,1,0-1,0,1.54,1.54,0,0,1-1.55,1.54h0a.52.52,0,0,0-.51.52.51.51,0,0,0,.51.52,1.54,1.54,0,0,1,1.55,1.54h0a.52.52,0,1,0,1,0Zm-1-2.06a2.51,2.51,0,0,0,.51-.52,2.56,2.56,0,0,0,.52.52,2.56,2.56,0,0,0-.52.52A2.51,2.51,0,0,0,940.22,379.29Z" />
      <path
        d="M912.87,379.81a1.55,1.55,0,0,1,1.55,1.54.52.52,0,1,0,1,0h0a1.55,1.55,0,0,1,1.55-1.54.52.52,0,1,0,0-1h0a1.54,1.54,0,0,1-1.54-1.55h0a.52.52,0,0,0-.52-.52.52.52,0,0,0-.52.52,1.54,1.54,0,0,1-1.54,1.54h0a.52.52,0,0,0-.51.52.51.51,0,0,0,.51.52Zm2.07-1a.52.52,0,0,1,0,1,3.2,3.2,0,0,0-.52-.52A2.56,2.56,0,0,0,914.94,378.77Z" />
    </g>
  </g>
  <g>
    <path class="q" d="M822,299.55a23.39,23.39,0,1,1-23.39,23.39A23.39,23.39,0,0,1,822,299.55Z" />
    <g class="r">
      <path
        d="M814.35,337a.52.52,0,0,0,.52.52h14.44a.52.52,0,0,0,.52-.52v-7.15a5.75,5.75,0,0,0-4.78-5.66,5.16,5.16,0,1,0-5.93,0,5.77,5.77,0,0,0-4.77,5.66ZM818,320a4.13,4.13,0,1,1,4.13,4.13A4.13,4.13,0,0,1,818,320Zm-2.58,9.87a4.72,4.72,0,0,1,4.72-4.71h4a4.72,4.72,0,0,1,4.71,4.71v6.64H815.38Z" />
      <rect x="821.61" y="308.55" width="1" height="4" />
      <rect x="826.73" y="311.5" width="2.06" height="1.03" transform="translate(21.82 676.71) rotate(-45)" />
      <rect x="832.61" y="337.55" width="2" height="1" />
      <rect x="832.61" y="331.55" width="2" height="1" />
      <rect x="832.61" y="325.55" width="2" height="1" />
      <rect x="832.41" y="321" width="2.06" height="1.03" transform="matrix(0.95, -0.32, 0.32, 0.95, -58.91, 280.2)" />
      <rect x="830.81" y="315.65" width="2.06" height="1.03"
        transform="matrix(0.95, -0.32, 0.32, 0.95, -57.3, 279.42)" />
      <rect x="815.9" y="310.98" width="1.03" height="2.06" transform="translate(18.46 668.61) rotate(-44.99)" />
      <rect x="808.61" y="337.55" width="4" height="1" />
      <rect x="808.61" y="331.55" width="4" height="1" />
      <rect x="808.61" y="325.55" width="4" height="1" />
      <rect x="810.22" y="320.48" width="1.03" height="2.06" transform="translate(249.39 989.02) rotate(-71.57)" />
      <rect x="811.82" y="315.13" width="1.03" height="2.06" transform="translate(255.73 987.01) rotate(-71.58)" />
      <path
        d="M835.51,311.2a1.55,1.55,0,0,1,1.54-1.55.52.52,0,1,0,0-1,1.55,1.55,0,0,1-1.54-1.55h0a.52.52,0,1,0-1,0,1.56,1.56,0,0,1-1.55,1.55h0a.52.52,0,1,0,0,1,1.55,1.55,0,0,1,1.55,1.55h0a.52.52,0,0,0,1,0Zm-1-2.07a.52.52,0,0,1,1,0,.52.52,0,0,1-1,0Z" />
      <path
        d="M807.13,309.65a1.56,1.56,0,0,1,1.55,1.55.52.52,0,0,0,1,0h0a1.54,1.54,0,0,1,1.55-1.55.52.52,0,0,0,0-1h0a1.55,1.55,0,0,1-1.55-1.55h0a.52.52,0,1,0-1,0,1.55,1.55,0,0,1-1.55,1.55h0a.52.52,0,1,0,0,1Zm2.06-1a2.51,2.51,0,0,0,.52.51,2.84,2.84,0,0,0-.52.52,2.74,2.74,0,0,0-.51-.51A3.14,3.14,0,0,0,809.19,308.62Z" />
    </g>
  </g>
  <g>
    <ellipse class="s" cx="739.41" cy="396.71" rx="23.39" ry="23.33" />
    <g class="t">
      <path
        d="M751.4,388.89a.63.63,0,0,0-.87,0h0L743,396.37l-.95-1,6.94-7a.62.62,0,1,0-.87-.87l-6.95,6.94-1-.95,7.47-7.5a.62.62,0,0,0,0-.87h0l-7.65-7.65a.62.62,0,0,0-.87,0h0l-7.66,7.65a.62.62,0,0,0,0,.87h0l7.48,7.5-.95,1-7-6.94a.62.62,0,0,0-.87,0,.6.6,0,0,0,0,.86l6.94,7-.95.95-7.5-7.48a.62.62,0,0,0-.86,0h0l-7.66,7.66a.62.62,0,0,0,0,.87h0l7.66,7.65a.6.6,0,0,0,.86,0h0l7.5-7.48,1,1-6.94,7a.62.62,0,0,0,0,.87.6.6,0,0,0,.86,0h0l7-6.95,1,1-7.49,7.49a.63.63,0,0,0,0,.87h0l7.66,7.66a.62.62,0,0,0,.87,0h0l7.66-7.66a.62.62,0,0,0,0-.87h0l-7.48-7.49,1-1,6.95,6.94a.62.62,0,0,0,.87,0,.6.6,0,0,0,0-.86h0l-6.95-7,1-.95,7.49,7.47a.62.62,0,0,0,.87,0h0l7.66-7.66a.6.6,0,0,0,0-.86h0Zm-23.1,14.88L721.51,397l6.79-6.79,6.79,6.79Zm4.54-18.12,6.79-6.79,6.79,6.79-6.79,6.79Zm13.58,22.67-6.79,6.79-6.79-6.79,6.79-6.79Zm-6.79-9.06L737.36,397l2.27-2.27,2.28,2.27ZM751,403.77,744.18,397l6.79-6.79,6.79,6.79Z" />
      <path
        d="M749.62,393.31l-.36.61h-.51a2,2,0,0,0-1.36.51,1.71,1.71,0,0,0-.62,1.3c0,.14.06.73.09,1.1a2.73,2.73,0,0,0,0,2.1,1.42,1.42,0,0,0,.92.75,2.44,2.44,0,0,0,2.68-1.71h0a.4.4,0,0,1,.38-.22H751a.41.41,0,0,1,.39.22h0a2.57,2.57,0,0,0,2.25,1.76,1.58,1.58,0,0,0,.43-.05,1.46,1.46,0,0,0,.92-.76,2.78,2.78,0,0,0,0-2.12c.05-.47.1-1,.1-1.15a1.92,1.92,0,0,0-2-1.74h-.48l-.36-.61a.61.61,0,0,0-.53-.31h-1.61A.6.6,0,0,0,749.62,393.31Zm2.24,2.48a.58.58,0,0,0,.53-.3l.18-.33h.58c.39,0,.76.27.77.55a2.43,2.43,0,0,1,0,.38l-.17,0a.62.62,0,1,0-.13,1.23h0a.56.56,0,0,1,.38.24v0a1.3,1.3,0,0,1,0,.85c0,.11-.11.13-.13.13-.37.1-.95-.24-1.23-1h0a1.64,1.64,0,0,0-1.53-1h-.16a1.64,1.64,0,0,0-1.53,1h0c-.29.73-.87,1.07-1.23,1,0,0-.07,0-.13-.12a1.41,1.41,0,0,1,0-.86h0a.57.57,0,0,1,.39-.25.61.61,0,0,0-.13-1.22h0l-.18,0a3.13,3.13,0,0,0,0-.34.55.55,0,0,1,.21-.41.94.94,0,0,1,.53-.2h.68l.08.25a.62.62,0,0,0,.58.4Zm-1.36-1.56h.94l.12.21h0l-.07.11h-1a.76.76,0,0,0-.09-.18Z" />
      <path
        d="M743.16,387.34v-2.8a1.17,1.17,0,0,0-1.15-1.17h-1.15l-.26-.35a.63.63,0,0,0-.49-.24h-.94a.63.63,0,0,0-.49.24l-.27.35h-1.16a1.15,1.15,0,0,0-1.14,1.17v2.8a1.17,1.17,0,0,0,1.14,1.17H742A1.17,1.17,0,0,0,743.16,387.34Zm-1.23-.06h-4.59V384.6h1.37a.61.61,0,0,0,.49-.25l.26-.34h.34l.26.34a.58.58,0,0,0,.49.25h1.37Z" />
      <circle cx="739.63" cy="385.84" r="0.75" />
      <path
        d="M728.53,392.38h0a1.5,1.5,0,0,1,1.5,1.5v3a1.5,1.5,0,0,1-1.5,1.5h0a1.5,1.5,0,0,1-1.5-1.5v-3A1.5,1.5,0,0,1,728.53,392.38Z" />
      <path
        d="M726.46,397v-1.25a.61.61,0,0,0-1.22,0V397a3.06,3.06,0,0,0,2.45,3v2a.61.61,0,0,0,1.22,0v-2a3.06,3.06,0,0,0,2.45-3v-1.25a.61.61,0,0,0-1.22,0V397a1.84,1.84,0,0,1-3.68,0Z" />
      <path
        d="M736.56,406.86a1.48,1.48,0,0,0-1,1.36v1.25a1.45,1.45,0,0,0,2.9,0h0v-1.25a1.45,1.45,0,0,0-.7-1.22,1.88,1.88,0,0,1,3.72,0,1.43,1.43,0,0,0-.7,1.22v1.25a1.45,1.45,0,1,0,2.89,0v-1.25a1.45,1.45,0,0,0-1-1.36,3.11,3.11,0,0,0-6.16,0Zm.7,2.61a.23.23,0,0,1-.45,0h0v-1.25a.23.23,0,0,1,.45,0Zm4.76-1.25a.22.22,0,0,1,.44,0h0v1.25a.22.22,0,0,1-.23.21.23.23,0,0,1-.21-.21Z" />
    </g>
  </g>
  <g>
    <path class="u" d="M786.05,220.65A23.39,23.39,0,1,1,762.67,244h0A23.38,23.38,0,0,1,786.05,220.65Z" />
    <g class="k">
      <path
        d="M798,236.16a.63.63,0,0,0-.87,0h0l-7.48,7.48-1-1,6.94-7a.62.62,0,0,0-.87-.87l-6.95,6.94-1-1,7.48-7.5a.63.63,0,0,0,0-.87h0l-7.66-7.65a.62.62,0,0,0-.87,0h0l-7.66,7.65a.62.62,0,0,0,0,.87h0l7.48,7.5-.95,1-7-6.94a.62.62,0,0,0-.87,0,.6.6,0,0,0,0,.86l6.94,7-1,.95-7.49-7.48a.63.63,0,0,0-.87,0h0l-7.66,7.66a.62.62,0,0,0,0,.87h0l7.66,7.65a.6.6,0,0,0,.86,0h0l7.5-7.48,1,1-6.94,7a.62.62,0,0,0,0,.87.6.6,0,0,0,.86,0h0l7-7,1,1-7.48,7.49a.62.62,0,0,0,0,.87h0l7.65,7.66a.62.62,0,0,0,.87,0h0l7.66-7.66a.62.62,0,0,0,0-.87h0l-7.48-7.49,1-1,6.95,6.94a.62.62,0,0,0,.87,0,.6.6,0,0,0,0-.86h0l-6.94-7,.95-.95,7.5,7.47a.6.6,0,0,0,.86,0h0l7.66-7.66a.6.6,0,0,0,0-.86h0ZM774.94,251l-6.79-6.79,6.79-6.79,6.79,6.79Zm4.54-18.12,6.8-6.79,6.79,6.79-6.79,6.79Zm13.59,22.67-6.79,6.79-6.8-6.79,6.8-6.79Zm-6.79-9.06L784,244.25l2.28-2.27,2.27,2.27ZM797.61,251l-6.79-6.79,6.79-6.79,6.79,6.79Z" />
      <path
        d="M796.26,240.58l-.36.61h-.51a2,2,0,0,0-1.36.51,1.71,1.71,0,0,0-.62,1.3c0,.14.06.73.09,1.1a2.73,2.73,0,0,0,0,2.1,1.42,1.42,0,0,0,.92.75,2.44,2.44,0,0,0,2.68-1.71h0a.41.41,0,0,1,.39-.22h.15a.41.41,0,0,1,.39.22h0a2.57,2.57,0,0,0,2.25,1.76,1.27,1.27,0,0,0,.43-.05,1.43,1.43,0,0,0,.92-.76,2.78,2.78,0,0,0,0-2.12c.05-.47.1-1,.1-1.15a1.92,1.92,0,0,0-2-1.74h-.48l-.36-.61a.61.61,0,0,0-.53-.31h-1.61A.6.6,0,0,0,796.26,240.58Zm2.24,2.48a.58.58,0,0,0,.53-.3l.18-.33h.58c.39,0,.76.27.77.55a2.43,2.43,0,0,1,0,.38l-.17,0a.62.62,0,0,0-.13,1.23h0a.54.54,0,0,1,.38.24v0a1.3,1.3,0,0,1,0,.85c-.05.11-.11.13-.13.13-.37.1-1-.24-1.23-1h0a1.64,1.64,0,0,0-1.53-1h-.16a1.64,1.64,0,0,0-1.53,1h0c-.29.73-.86,1.07-1.23,1,0,0-.07,0-.13-.12a1.34,1.34,0,0,1,0-.86h0a.53.53,0,0,1,.38-.25.61.61,0,0,0-.13-1.22h0l-.18,0a3.13,3.13,0,0,0,0-.34.55.55,0,0,1,.21-.41.94.94,0,0,1,.53-.2h.68l.09.25a.6.6,0,0,0,.57.4Zm-1.36-1.56h.94l.12.21h0l-.06.11h-1a.76.76,0,0,0-.09-.18Z" />
      <path
        d="M789.8,234.61v-2.8a1.17,1.17,0,0,0-1.15-1.17H787.5l-.26-.35a.63.63,0,0,0-.49-.24h-.94a.63.63,0,0,0-.49.24l-.27.35h-1.16a1.16,1.16,0,0,0-1.14,1.17v2.8a1.17,1.17,0,0,0,1.15,1.17h4.75A1.17,1.17,0,0,0,789.8,234.61Zm-1.23-.06H784v-2.68h1.37a.61.61,0,0,0,.49-.25l.26-.34h.34l.26.34a.58.58,0,0,0,.49.25h1.37Z" />
      <circle cx="786.27" cy="233.11" r="0.75" />
      <path
        d="M775.17,239.65h0a1.5,1.5,0,0,1,1.5,1.5v3a1.5,1.5,0,0,1-1.5,1.5h0a1.5,1.5,0,0,1-1.5-1.5v-3A1.5,1.5,0,0,1,775.17,239.65Z" />
      <path
        d="M773.1,244.26V243a.61.61,0,0,0-.63-.59.62.62,0,0,0-.59.59v1.25a3.06,3.06,0,0,0,2.45,3v2a.61.61,0,0,0,1.22,0v-2a3.06,3.06,0,0,0,2.45-3V243a.61.61,0,0,0-.63-.59.62.62,0,0,0-.59.59v1.25a1.84,1.84,0,0,1-3.68,0Z" />
      <path
        d="M783.2,254.13a1.45,1.45,0,0,0-1,1.36v1.25a1.45,1.45,0,0,0,2.89,0h0v-1.25a1.45,1.45,0,0,0-.7-1.22,1.88,1.88,0,0,1,3.72,0,1.43,1.43,0,0,0-.7,1.22v1.25a1.45,1.45,0,1,0,2.89,0v-1.25a1.45,1.45,0,0,0-1-1.36,3.11,3.11,0,0,0-6.16,0Zm.7,2.61a.22.22,0,0,1-.24.21.21.21,0,0,1-.2-.21h0v-1.25a.21.21,0,0,1,.23-.2.22.22,0,0,1,.21.2Zm4.76-1.25a.22.22,0,0,1,.24-.2.21.21,0,0,1,.2.2h0v1.25a.22.22,0,0,1-.23.21.23.23,0,0,1-.21-.21Z" />
    </g>
  </g>
  <g>
    <ellipse class="v" cx="273.44" cy="249.86" rx="23.39" ry="23.33" />
    <g class="s">
      <path
        d="M285.5,241.27a1.86,1.86,0,0,0,.12-3.23,13.14,13.14,0,0,0-6-2.13,12.08,12.08,0,0,0-6.17,1.18c-3.93-2.2-8.06-1.88-12.31.95a1.88,1.88,0,0,0-.52,2.6,2,2,0,0,0,.68.61h0a30,30,0,0,0,3.27,1.48,5.08,5.08,0,0,0-.12,1.1V252a9,9,0,0,0,17.92,0v-8.17a5.08,5.08,0,0,0-.12-1.1A29.43,29.43,0,0,0,285.5,241.27ZM262,240h0a.5.5,0,0,1-.27-.4.51.51,0,0,1,.23-.45c3.94-2.63,7.59-2.87,11.17-.73a.68.68,0,0,0,.65,0,10.72,10.72,0,0,1,11.16.72.48.48,0,0,1,.23.44.44.44,0,0,1-.26.41,26.32,26.32,0,0,1-3.06,1.39,5.3,5.3,0,0,0-4.69-2.88,4.37,4.37,0,0,1-7.38,0,5.25,5.25,0,0,0-4.69,2.88A28.71,28.71,0,0,1,262,240ZM281,252a7.59,7.59,0,1,1-15.17,0v-8.16a3.89,3.89,0,0,1,3.89-3.89,3,3,0,0,1,3,3v4.49a.69.69,0,0,0,1.37,0v-4.49a3,3,0,0,1,3-3,3.89,3.89,0,0,1,3.89,3.89Z" />
      <path d="M273.43,249.07a.69.69,0,0,0-.69.69v1.4a.69.69,0,1,0,1.37,0v-1.4A.69.69,0,0,0,273.43,249.07Z" />
      <path d="M273.43,262.38a.68.68,0,0,0-.69.68v2.34a.69.69,0,1,0,1.37,0v-2.34A.68.68,0,0,0,273.43,262.38Z" />
      <path
        d="M262,253.09a.68.68,0,0,0-.69-.68H259a.68.68,0,0,0-.71.66.69.69,0,0,0,.66.71h2.39A.69.69,0,0,0,262,253.09Z" />
      <path d="M287.9,252.41h-2.34a.69.69,0,0,0-.05,1.37h2.39a.69.69,0,1,0,.05-1.37Z" />
      <path
        d="M263.16,260l-1.65,1.65a.69.69,0,0,0,0,1h0a.66.66,0,0,0,.48.2.68.68,0,0,0,.49-.2l1.66-1.66a.69.69,0,0,0,0-1h0A.69.69,0,0,0,263.16,260Z" />
      <path d="M283.69,260a.68.68,0,0,0-1,1h0l1.66,1.66a.69.69,0,1,0,1-1Z" />
    </g>
  </g>
  <g>
    <circle class="w" cx="478.18" cy="407.67" r="23.39" />
    <g class="x">
      <path
        d="M493.55,404.14a19.69,19.69,0,0,0-31,0,4.28,4.28,0,0,0,0,5.27,19.88,19.88,0,0,0,6.75,5.5,19.71,19.71,0,0,0,24.29-5.5A4.25,4.25,0,0,0,493.55,404.14Zm-1.08,4.42a18.54,18.54,0,0,1-6.28,5.12,18.33,18.33,0,0,1-22.59-5.12,2.9,2.9,0,0,1,0-3.57,18.33,18.33,0,0,1,28.87,0,2.88,2.88,0,0,1,0,3.57Z" />
      <path
        d="M482.78,401.39a7.18,7.18,0,1,0,2.43,5.38A7.18,7.18,0,0,0,482.78,401.39ZM478,412.57a5.8,5.8,0,1,1,5.8-5.8A5.8,5.8,0,0,1,478,412.57Z" />
      <path d="M478,394.89a.69.69,0,0,0,.69-.69v-2.54a.69.69,0,1,0-1.38,0v2.54A.69.69,0,0,0,478,394.89Z" />
      <path
        d="M488.64,397.74a.71.71,0,0,0,.49-.2l1.79-1.79a.69.69,0,0,0,0-1,.68.68,0,0,0-1,0h0l-1.8,1.8a.68.68,0,0,0,0,1h0A.68.68,0,0,0,488.64,397.74Z" />
      <path d="M466.94,397.54a.7.7,0,0,0,1,0,.68.68,0,0,0,0-1h0l-1.79-1.8a.69.69,0,0,0-1,1Z" />
      <path d="M478,418.65a.7.7,0,0,0-.69.69v2.54a.69.69,0,1,0,1.38,0v-2.54A.69.69,0,0,0,478,418.65Z" />
      <path
        d="M466.94,416l-1.79,1.8a.69.69,0,0,0,0,1h0a.68.68,0,0,0,.49.2.71.71,0,0,0,.49-.2l1.79-1.79a.68.68,0,0,0,0-1h0A.71.71,0,0,0,466.94,416Z" />
      <path d="M489.12,416a.69.69,0,0,0-1,1l1.79,1.79a.7.7,0,0,0,1,0,.68.68,0,0,0,0-1h0Z" />
      <path
        d="M480.65,406.08a.69.69,0,0,0-.69.69,1.93,1.93,0,1,1-1.93-1.93.69.69,0,0,0,0-1.38,3.31,3.31,0,1,0,3.31,3.31A.69.69,0,0,0,480.65,406.08Z" />
    </g>
  </g>
  <g>
    <path class="y" d="M95.4,135.8a41.6,41.6,0,1,1-41.6,41.6,41.6,41.6,0,0,1,41.6-41.6Z" />
    <g class="z">
      <path
        d="M95.12,164.08a13,13,0,1,0,13,13h0A13,13,0,0,0,95.12,164.08Zm0,24.52a11.48,11.48,0,1,1,11.48-11.48h0A11.48,11.48,0,0,1,95.12,188.6Z" />
      <rect x="94.34" y="146.8" width="1.57" height="11.94" />
      <rect x="94.34" y="195.5" width="1.57" height="11.94" />
      <rect x="113.5" y="176.34" width="11.94" height="1.57" />
      <rect x="64.8" y="176.34" width="11.94" height="1.57" />
      <rect x="110.67" y="187.49" width="1.57" height="11.94" transform="translate(-104.15 135.48) rotate(-45)" />
      <rect x="78.02" y="154.82" width="1.57" height="11.94" transform="translate(-90.61 102.82) rotate(-45)" />
      <rect x="72.83" y="192.67" width="11.94" height="1.57" transform="translate(-113.71 112.38) rotate(-45)" />
      <rect x="105.5" y="160.01" width="11.94" height="1.57" transform="translate(-81.05 125.92) rotate(-45)" />
    </g>
  </g>
  <g>
    <circle class="o" cx="152.7" cy="270.97" r="23.39" />
    <g class="aa">
      <path
        d="M160.22,269a9.08,9.08,0,1,0-16.89-4.65.69.69,0,1,0,1.38,0h0A7.71,7.71,0,1,1,159,268.33l-2.31,3.89a8.6,8.6,0,0,0-.9,6.65,4.08,4.08,0,0,1-.71,3.6,4.13,4.13,0,0,1-3.29,1.63h-3a4.14,4.14,0,0,1-4.14-4.15.7.7,0,0,0-1.39,0h0a5.53,5.53,0,0,0,5.53,5.53h3a5.53,5.53,0,0,0,5.53-5.54,5.45,5.45,0,0,0-.19-1.45,7.27,7.27,0,0,1,.75-5.58Z" />
      <path
        d="M148.11,277.23a.69.69,0,1,0,0,1.38,3.29,3.29,0,0,0,2.07-5.87,3.71,3.71,0,0,1-1.38-2.89v-1.22h1.93a1,1,0,0,1,1,1h0a.7.7,0,0,0,1.39,0,2.39,2.39,0,0,0-2.38-2.38H148.8v-2.48a3.61,3.61,0,1,1,6.77,1.74.7.7,0,0,0,1.22.68,5,5,0,1,0-9.38-2.42h0v5.09a5.07,5.07,0,0,0,1.9,4,1.93,1.93,0,0,1-1.2,3.42Z" />
      <path
        d="M167.46,271.52,165,271a.7.7,0,0,0-.83.52.69.69,0,0,0,.52.83h0l2.49.57a.39.39,0,0,0,.15,0,.7.7,0,0,0,.67-.73A.71.71,0,0,0,167.46,271.52Z" />
      <path
        d="M160.25,281a.69.69,0,0,0-.95-.25.7.7,0,0,0-.25,1l0,0,1.36,2.16a.71.71,0,0,0,.59.33.82.82,0,0,0,.37-.1.69.69,0,0,0,.22-.95h0Z" />
      <path d="M164.76,261.2l2.16-1.36a.69.69,0,0,0-.74-1.17L164,260a.69.69,0,1,0,.74,1.17Z" />
    </g>
  </g>
  <g>
    <circle class="ab" cx="359.86" cy="369.71" r="23.39" />
    <g class="ac">
      <path
        d="M371.23,374.56a6.3,6.3,0,0,0-2.64-5.23l-1.17-.81a4.63,4.63,0,0,1-1.93-3.27l-1.36-11.09a.73.73,0,0,0-.78-.68h0a.78.78,0,0,0-.62.88l1.37,11.09a6.25,6.25,0,0,0,2.59,4.4l1.17.81a4.87,4.87,0,0,1,1,6.82c-.13.17-.26.32-.4.47a4,4,0,0,1-3.2,1.2l-2.54-.23a2.25,2.25,0,0,1,1.85-1h.55a.79.79,0,0,0,0-1.57h-.55a3.67,3.67,0,0,0-3.1,1.81l-.25.41a2.2,2.2,0,0,1-3,.83,2.28,2.28,0,0,1-.83-.83l-.25-.41a3.66,3.66,0,0,0-3.1-1.81h-.63a.79.79,0,0,0,0,1.57H354a2.23,2.23,0,0,1,1.85,1l-2.54.23a3.92,3.92,0,0,1-3.2-1.2,4.77,4.77,0,0,1-1.38-3.38,4.71,4.71,0,0,1,2-3.9l1.19-.82a6.19,6.19,0,0,0,2.59-4.37l1.44-11.1a.78.78,0,0,0-.61-.89.74.74,0,0,0-.81.64v0l-1.44,11.11a4.63,4.63,0,0,1-1.93,3.25l-1.16.82a6.29,6.29,0,0,0-2.65,5.23,6.48,6.48,0,0,0,1.83,4.54,5.34,5.34,0,0,0,4.29,1.6l3.56-.32a3.46,3.46,0,0,0,4.54,0l3.56.32a3.71,3.71,0,0,0,.47,0,5.42,5.42,0,0,0,3.82-1.62A6.54,6.54,0,0,0,371.23,374.56Z" />
      <path
        d="M359.28,383.83a.75.75,0,0,0-.71.79v2.32a.72.72,0,0,0,1.43.13.29.29,0,0,0,0-.13v-2.32A.75.75,0,0,0,359.28,383.83Z" />
      <path
        d="M349.91,382.48l-1.51,1.65a.83.83,0,0,0,0,1.1.68.68,0,0,0,1,0l1.5-1.64a.84.84,0,0,0,0-1.11.68.68,0,0,0-.95-.06Z" />
      <path
        d="M368.66,382.48a.69.69,0,0,0-1-.06l-.06.06a.84.84,0,0,0,0,1.11l1.51,1.65a.65.65,0,0,0,.51.22.68.68,0,0,0,.5-.22.83.83,0,0,0,0-1.1Z" />
    </g>
  </g>
  <g>
    <path class="ad" d="M212.24,419.63A23.39,23.39,0,1,1,188.85,443h0A23.39,23.39,0,0,1,212.24,419.63Z" />
    <g class="ae">
      <path
        d="M221.1,443.55l-8.34-3.27v-8a3.49,3.49,0,0,0-7,0h0v8.27l-3,3.36a4.12,4.12,0,0,0-1.07,2.77v6.24a6.25,6.25,0,0,0,6.25,6.24h9.55a6.24,6.24,0,0,0,6.24-6.24V447.4A4.15,4.15,0,0,0,221.1,443.55Zm1.05,9.38a4.67,4.67,0,0,1-4.67,4.67h-9.55a4.67,4.67,0,0,1-4.67-4.67v-6.24a2.53,2.53,0,0,1,.66-1.71l1.86-2.07v5.87a.79.79,0,1,0,1.57,0v-16.5a1.92,1.92,0,0,1,3.84,0v8.54a.79.79,0,0,0,.5.73l8.83,3.47a2.53,2.53,0,0,1,1.63,2.39v5.52Z" />
      <path
        d="M209.27,426.45a.78.78,0,0,0,.78-.78v-2.21a.8.8,0,0,0-.78-.79.79.79,0,0,0-.79.79h0v2.21A.78.78,0,0,0,209.27,426.45Z" />
      <path d="M215.43,434a.78.78,0,0,0,.79.78h2.2a.79.79,0,1,0,0-1.57h-2.21A.78.78,0,0,0,215.43,434Z" />
      <path d="M203.25,434a.79.79,0,0,0-.79-.79h-2.2a.79.79,0,1,0,0,1.57h2.2a.77.77,0,0,0,.79-.78Z" />
      <path
        d="M214.86,429.64a.79.79,0,0,0,.56-.23l1.56-1.55a.8.8,0,0,0,0-1.11.78.78,0,0,0-1.11,0l-1.56,1.56a.78.78,0,0,0,.55,1.33Z" />
      <path
        d="M203.11,429.41a.75.75,0,0,0,.56.23.79.79,0,0,0,.56-.23.77.77,0,0,0,0-1.1h0l-1.56-1.56a.77.77,0,0,0-1.1,0,.78.78,0,0,0,0,1.11Z" />
    </g>
  </g>
  <g>
    <circle class="o" cx="176.09" cy="346.32" r="23.39" />
    <g class="aa">
      <path
        d="M183.61,344.39a9.09,9.09,0,1,0-16.9-4.65.7.7,0,0,0,1.39,0h0a7.71,7.71,0,1,1,14.32,3.94l-2.32,3.89a8.69,8.69,0,0,0-.9,6.65,4.08,4.08,0,0,1-.7,3.6,4.13,4.13,0,0,1-3.29,1.63h-3a4.15,4.15,0,0,1-4.15-4.15.69.69,0,0,0-1.38,0h0a5.52,5.52,0,0,0,5.53,5.53h3a5.54,5.54,0,0,0,5.53-5.54,5.46,5.46,0,0,0-.2-1.45,7.23,7.23,0,0,1,.76-5.58Z" />
      <path
        d="M171.5,352.58a.7.7,0,1,0,0,1.39,3.3,3.3,0,0,0,2.07-5.88,3.7,3.7,0,0,1-1.38-2.88V344h1.93a1,1,0,0,1,1,1h0a.69.69,0,1,0,1.38,0,2.38,2.38,0,0,0-2.37-2.38h-1.93v-2.48a3.61,3.61,0,0,1,6.72-1.84,3.57,3.57,0,0,1,.05,3.59.69.69,0,1,0,1.21.67,5,5,0,1,0-9.37-2.42h0v5.1a5.06,5.06,0,0,0,1.89,4,1.92,1.92,0,0,1-1.2,3.42Z" />
      <path
        d="M190.85,346.87l-2.49-.56a.68.68,0,0,0-.83.52.69.69,0,0,0,.52.83h0l2.48.56a.41.41,0,0,0,.16,0,.71.71,0,0,0,.16-1.38Z" />
      <path
        d="M183.64,356.37a.69.69,0,1,0-1.2.7l0,0,1.36,2.16a.67.67,0,0,0,.58.33.79.79,0,0,0,.37-.1.69.69,0,0,0,.22-.95h0Z" />
      <path
        d="M188.14,336.55l2.16-1.35a.7.7,0,0,0-.74-1.18l-2.16,1.36a.7.7,0,0,0-.19,1,.73.73,0,0,0,.57.32A.77.77,0,0,0,188.14,336.55Z" />
    </g>
  </g>
  <g>
    <circle class="w" cx="296.82" cy="338.55" r="23.39" />
    <g class="x">
      <path
        d="M312.2,335a19.69,19.69,0,0,0-31,0,4.28,4.28,0,0,0,0,5.27,19.69,19.69,0,0,0,31,0A4.28,4.28,0,0,0,312.2,335Zm-1.08,4.42a18.32,18.32,0,0,1-28.87,0,2.86,2.86,0,0,1,0-3.56,18.33,18.33,0,0,1,28.87,0,2.88,2.88,0,0,1,0,3.56Z" />
      <path
        d="M301.43,332.27a7.18,7.18,0,1,0,2.43,5.39A7.17,7.17,0,0,0,301.43,332.27Zm-4.75,11.19a5.8,5.8,0,1,1,5.8-5.8A5.8,5.8,0,0,1,296.68,343.46Z" />
      <path d="M296.68,325.77a.69.69,0,0,0,.69-.69v-2.54a.69.69,0,0,0-1.38,0v2.55A.68.68,0,0,0,296.68,325.77Z" />
      <path
        d="M307.28,328.62a.68.68,0,0,0,.49-.2l1.8-1.79a.68.68,0,0,0,0-1,.69.69,0,0,0-1,0h0l-1.79,1.79a.68.68,0,0,0,0,1h0A.63.63,0,0,0,307.28,328.62Z" />
      <path d="M285.59,328.42a.64.64,0,0,0,.49.2.7.7,0,0,0,.49-.2.68.68,0,0,0,0-1h0l-1.8-1.79a.69.69,0,1,0-1,1Z" />
      <path d="M296.68,349.54a.69.69,0,0,0-.69.69v2.54a.69.69,0,1,0,1.38,0v-2.54A.69.69,0,0,0,296.68,349.54Z" />
      <path
        d="M285.59,346.89l-1.8,1.79a.69.69,0,0,0,0,1h0a.7.7,0,0,0,.49.2.72.72,0,0,0,.49-.2l1.8-1.8a.68.68,0,0,0,0-1h0A.69.69,0,0,0,285.59,346.89Z" />
      <path
        d="M307.77,346.89a.69.69,0,0,0-1,0,.68.68,0,0,0,0,1l1.8,1.8a.68.68,0,0,0,.49.2.8.8,0,0,0,.49-.2.69.69,0,0,0,0-1h0Z" />
      <path
        d="M299.3,337a.69.69,0,0,0-.69.69,1.93,1.93,0,1,1-1.93-1.94.69.69,0,1,0,0-1.38,3.32,3.32,0,1,0,3.31,3.32A.69.69,0,0,0,299.3,337Z" />
    </g>
  </g>
  <g>
    <ellipse class="v" cx="68.34" cy="366.66" rx="23.39" ry="23.33" />
    <g class="s">
      <path
        d="M80.41,358.07a1.86,1.86,0,0,0,.12-3.23,13.42,13.42,0,0,0-6-2.13,12.16,12.16,0,0,0-6.17,1.18c-3.93-2.2-8.06-1.88-12.31.95a1.86,1.86,0,0,0-.52,2.6,1.78,1.78,0,0,0,.67.61h0a30.09,30.09,0,0,0,3.27,1.49,5.79,5.79,0,0,0-.12,1.1v8.16a9,9,0,0,0,17.93,0v-8.16a5.08,5.08,0,0,0-.12-1.1A31.5,31.5,0,0,0,80.41,358.07Zm-23.56-1.23h0a.5.5,0,0,1-.26-.41.46.46,0,0,1,.23-.44c3.94-2.63,7.58-2.87,11.16-.73a.68.68,0,0,0,.65,0,10.71,10.71,0,0,1,11.16.71.48.48,0,0,1,.24.45.49.49,0,0,1-.27.41,28.77,28.77,0,0,1-3.05,1.38A5.27,5.27,0,0,0,72,355.37a4.38,4.38,0,0,1-7.39,0,5.27,5.27,0,0,0-4.69,2.87A32.89,32.89,0,0,1,56.85,356.84Zm19.07,12a7.59,7.59,0,0,1-15.18,0v-8.17a3.9,3.9,0,0,1,3.9-3.89,3,3,0,0,1,3,3v4.48a.69.69,0,0,0,1.38,0v-4.48a3,3,0,0,1,3-3,3.89,3.89,0,0,1,3.89,3.89Z" />
      <path
        d="M68.33,365.87a.68.68,0,0,0-.68.69V368a.67.67,0,0,0,.68.68A.68.68,0,0,0,69,368v-1.41A.69.69,0,0,0,68.33,365.87Z" />
      <path
        d="M68.33,379.18a.68.68,0,0,0-.68.69v2.34a.68.68,0,0,0,.68.69.69.69,0,0,0,.69-.69v-2.34A.69.69,0,0,0,68.33,379.18Z" />
      <path d="M56.89,369.9a.7.7,0,0,0-.69-.69H53.86a.69.69,0,1,0,0,1.37H56.2A.68.68,0,0,0,56.89,369.9Z" />
      <path d="M82.81,369.21H80.47a.7.7,0,0,0-.72.66.68.68,0,0,0,.66.71h2.4a.69.69,0,0,0,0-1.37Z" />
      <path
        d="M58.07,376.75l-1.66,1.65a.69.69,0,0,0,0,1h0a.7.7,0,0,0,1,0L59,377.72a.68.68,0,0,0,0-1h0A.68.68,0,0,0,58.07,376.75Z" />
      <path d="M78.6,376.75a.69.69,0,0,0-1,1h0l1.65,1.65a.7.7,0,0,0,1,0,.68.68,0,0,0,0-1Z" />
    </g>
  </g>
  <g>
    <circle class="k" cx="710.99" cy="211.82" r="23.39" />
    <g class="l">
      <path
        d="M725.37,196.81a.37.37,0,0,0-.37-.38H696a.38.38,0,0,0-.37.38v29a.38.38,0,0,0,.37.38h29a.37.37,0,0,0,.37-.38h0ZM703.6,223.37a2.57,2.57,0,0,1,2.58-2.58h1.36a2.59,2.59,0,0,1,2.58,2.58v2.1H703.6Zm7.26,0a2.57,2.57,0,0,1,2.57-2.58h1.37a2.59,2.59,0,0,1,2.58,2.58v2.1h-6.52Zm3.94-3.32h-1.37a3.31,3.31,0,0,1-5.89,0h-1.36a3.32,3.32,0,0,1-5.9,0h-.1a17.48,17.48,0,0,0-3.45-5.09c6.66-2.25,6.92-11.4,6.91-12.92h.17a2.2,2.2,0,0,1,3.68,0h1.16a2.2,2.2,0,0,1,3.67,0h1.16a2.2,2.2,0,0,1,3.68,0h.17c0,1.52.25,10.67,6.91,12.92a17.48,17.48,0,0,0-3.45,5.09h-.1a3.31,3.31,0,0,1-5.89,0Zm-14-19a2.22,2.22,0,0,0,1.84,1h.25c0,1.4-.21,10.24-6.55,12.26V201.48a2.18,2.18,0,0,0,1.46.56H699a2.2,2.2,0,0,0,1.84-1Zm19.36,0a2.19,2.19,0,0,0,1.83,1h1.16a2.18,2.18,0,0,0,1.47-.56v12.82c-6.34-2-6.56-10.86-6.56-12.26h.25a2.19,2.19,0,0,0,1.84-1Zm4.46,14.58v5.64a3.34,3.34,0,0,0-2.58-1.22h-.44A17.32,17.32,0,0,1,724.63,215.63Zm-28.29-18.45h28.29v2.64a1.47,1.47,0,0,1-1.47,1.47H722a1.47,1.47,0,0,1-1.47-1.47.37.37,0,0,0-.37-.37.38.38,0,0,0-.37.37,1.47,1.47,0,0,1-1.47,1.47h-1.16a1.47,1.47,0,0,1-1.46-1.46.38.38,0,0,0-.37-.38.37.37,0,0,0-.37.38h0a1.46,1.46,0,0,1-1.47,1.46h-1.16a1.46,1.46,0,0,1-1.47-1.46.37.37,0,0,0-.37-.38.38.38,0,0,0-.37.38h0a1.46,1.46,0,0,1-1.47,1.46h-1.16a1.47,1.47,0,0,1-1.47-1.46.37.37,0,0,0-.37-.38.38.38,0,0,0-.37.38h0a1.46,1.46,0,0,1-1.47,1.46h-1.16a1.46,1.46,0,0,1-1.47-1.46.37.37,0,0,0-.37-.38.38.38,0,0,0-.37.38,1.46,1.46,0,0,1-1.47,1.46h-1.16a1.46,1.46,0,0,1-1.46-1.46Zm0,18.45a17.07,17.07,0,0,1,3,4.42h-.44a3.34,3.34,0,0,0-2.58,1.22Zm0,7.73a2.58,2.58,0,0,1,2.58-2.57h1.36a2.57,2.57,0,0,1,2.58,2.57v2.1h-6.52Zm28.29,2.1h-6.51v-2.1a2.57,2.57,0,0,1,2.57-2.57h1.37a2.57,2.57,0,0,1,2.57,2.57Z" />
      <path
        d="M698.33,209.53a.37.37,0,0,0,.51-.12,11.41,11.41,0,0,0,1.45-4.8.36.36,0,0,0-.35-.39.38.38,0,0,0-.39.35h0A10.77,10.77,0,0,1,698.2,209a.37.37,0,0,0,.12.51Z" />
      <path
        d="M722.45,209.59a.38.38,0,0,0,.38-.38.35.35,0,0,0-.06-.19,10.83,10.83,0,0,1-1.35-4.44.37.37,0,1,0-.74,0,11.29,11.29,0,0,0,1.46,4.8A.38.38,0,0,0,722.45,209.59Z" />
    </g>
  </g>
  <g>
    <ellipse class="s" cx="1081.61" cy="169.94" rx="23.39" ry="23.33" />
    <g class="t">
      <path
        d="M1093.59,162.12a.6.6,0,0,0-.86,0h0l-7.49,7.48-1-1,6.94-7a.62.62,0,0,0,0-.87.63.63,0,0,0-.87,0l-6.95,6.95-1-1,7.48-7.5a.62.62,0,0,0,0-.86h0l-7.66-7.66a.62.62,0,0,0-.87,0h0l-7.66,7.66a.62.62,0,0,0,0,.87h0l7.48,7.5-1,.95-7-6.94a.62.62,0,0,0-.87.87l7,6.95-1,1-7.49-7.48a.62.62,0,0,0-.87,0h0l-7.66,7.66a.6.6,0,0,0,0,.86h0l7.66,7.66a.6.6,0,0,0,.86,0h0l7.5-7.48,1,1-6.94,7a.6.6,0,0,0,0,.86.62.62,0,0,0,.87,0h0l7-6.94,1,1-7.48,7.49a.62.62,0,0,0,0,.87h0l7.65,7.65a.62.62,0,0,0,.87,0h0l7.66-7.65a.62.62,0,0,0,0-.87h0l-7.48-7.49,1-1,6.95,6.94a.62.62,0,0,0,.87-.87h0l-6.94-6.95,1-1,7.49,7.48a.6.6,0,0,0,.86,0h0l7.66-7.66a.62.62,0,0,0,0-.87h0ZM1070.49,177l-6.79-6.79,6.79-6.79,6.79,6.79Zm4.54-18.12,6.8-6.8,6.79,6.8-6.79,6.79Zm13.59,22.66-6.79,6.79-6.79-6.79,6.79-6.79Zm-6.79-9.06-2.28-2.27,2.28-2.27,2.27,2.27Zm11.33,4.52-6.79-6.79,6.79-6.79,6.79,6.79Z" />
      <path
        d="M1091.81,166.53l-.36.62h-.51a2,2,0,0,0-1.36.5,1.77,1.77,0,0,0-.62,1.3c0,.15.06.74.09,1.1a2.73,2.73,0,0,0,0,2.1,1.46,1.46,0,0,0,.92.76,2.45,2.45,0,0,0,2.68-1.71h0a.41.41,0,0,1,.39-.22h.16a.4.4,0,0,1,.38.22h0a2.6,2.6,0,0,0,2.25,1.76,2,2,0,0,0,.43-.05,1.42,1.42,0,0,0,.92-.77,2.69,2.69,0,0,0,0-2.12c0-.46.1-1,.1-1.14a1.92,1.92,0,0,0-2-1.74h-.48l-.36-.62a.63.63,0,0,0-.53-.3h-1.61A.61.61,0,0,0,1091.81,166.53Zm2.24,2.49a.59.59,0,0,0,.53-.31l.18-.32h.58c.39,0,.76.27.77.55a2.31,2.31,0,0,1,0,.37l-.17,0a.61.61,0,1,0-.13,1.22h0a.59.59,0,0,1,.38.25v0a1.3,1.3,0,0,1,0,.85.21.21,0,0,1-.13.13c-.37.09-.94-.25-1.23-1h0a1.62,1.62,0,0,0-1.53-1h-.16a1.63,1.63,0,0,0-1.53,1h0c-.29.72-.86,1.06-1.22,1,0,0-.08,0-.14-.13a1.37,1.37,0,0,1,0-.85v0a.52.52,0,0,1,.38-.24.62.62,0,0,0-.13-1.23h0l-.18,0a2.86,2.86,0,0,0,0-.34.55.55,0,0,1,.21-.41.82.82,0,0,1,.54-.2h.67l.09.24a.61.61,0,0,0,.57.4Zm-1.36-1.57h.94l.12.21h0l-.06.12h-1a.51.51,0,0,0-.09-.18Z" />
      <path
        d="M1085.35,160.57v-2.8a1.15,1.15,0,0,0-1.15-1.17h-1.15l-.26-.35a.63.63,0,0,0-.49-.24h-.94a.63.63,0,0,0-.49.24l-.27.35h-1.15a1.17,1.17,0,0,0-1.15,1.17v2.8a1.17,1.17,0,0,0,1.15,1.17h4.75A1.17,1.17,0,0,0,1085.35,160.57Zm-1.23-.06h-4.59v-2.69h1.37a.63.63,0,0,0,.49-.24l.26-.35h.34l.26.35a.63.63,0,0,0,.49.24h1.38Z" />
      <circle cx="1081.83" cy="159.06" r="0.75" />
      <path
        d="M1070.72,165.6h0a1.5,1.5,0,0,1,1.5,1.5v3a1.5,1.5,0,0,1-1.5,1.5h0a1.5,1.5,0,0,1-1.5-1.5v-3A1.5,1.5,0,0,1,1070.72,165.6Z" />
      <path
        d="M1068.65,170.21V169a.6.6,0,0,0-.63-.59.61.61,0,0,0-.59.59v1.24a3.05,3.05,0,0,0,2.45,3v2a.61.61,0,0,0,1.22,0v-2a3.05,3.05,0,0,0,2.45-3V169a.6.6,0,0,0-.63-.59.61.61,0,0,0-.59.59v1.24a1.84,1.84,0,1,1-3.68,0Z" />
      <path
        d="M1078.75,180.09a1.44,1.44,0,0,0-1,1.36v1.25a1.45,1.45,0,1,0,2.89,0h0v-1.25a1.44,1.44,0,0,0-.7-1.22,1.88,1.88,0,0,1,3.72,0,1.42,1.42,0,0,0-.7,1.22v1.25a1.45,1.45,0,1,0,2.89,0v-1.25a1.44,1.44,0,0,0-1-1.36,3.11,3.11,0,0,0-6.16,0Zm.7,2.61a.24.24,0,0,1-.24.21.22.22,0,0,1-.2-.21h0v-1.25a.21.21,0,0,1,.23-.2.22.22,0,0,1,.21.2Zm4.76-1.25a.22.22,0,0,1,.24-.2.2.2,0,0,1,.2.2h0v1.25a.22.22,0,0,1-.23.21.23.23,0,0,1-.21-.21Z" />
    </g>
  </g>
  <ellipse class="af" cx="587.6" cy="110.45" rx="41.52" ry="42.04" />
  <g class="y">
    <path
      d="M587.93,67.82a42.9,42.9,0,1,0,42.9,42.9h0a42.9,42.9,0,0,0-42.9-42.9Zm0,80.62a37.73,37.73,0,1,1,37.73-37.73h0a37.73,37.73,0,0,1-37.73,37.73Z" />
    <rect x="585.35" y="11" width="5.17" height="39.28" />
    <rect x="648.38" y="108.13" width="39.28" height="5.17" />
    <rect x="531.68" y="37.35" width="5.17" height="39.28" transform="translate(116.18 394.47) rotate(-45)" />
    <rect x="622.05" y="54.44" width="39.28" height="5.17" transform="translate(147.63 470.44) rotate(-45)" />
  </g>
  <path class="ag"
    d="M504,93.08s25.08-19.3,57.5,9.45c13-18.16,41.53-18.16,54.91,0,34.75,47.15,63.21,1.77,59.87,33.08s-12.47,35.72-47.72,30.2-110.54,43.9-134,0S504,93.08,504,93.08Z" />
  <path class="ah" d="M527.36,74.87h0S542.8,55,565.69,49.15c35.42-9,87.71,2,93.42,69.71" />
</svg>
